HIERARCHY
ROOT hip
{
	OFFSET 0.000000 0.000000 0.000000
	CHANNELS 6 Xposition Yposition Zposition Xrotation Zrotation Yrotation 
	JOINT abdomen
	{
		OFFSET 0.000000 3.422050 0.000000
		CHANNELS 3 Xrotation Zrotation Yrotation 
		JOINT chest
		{
			OFFSET 0.000000 8.486693 -0.684411
			CHANNELS 3 Xrotation Zrotation Yrotation 
			JOINT neck
			{
				OFFSET 0.000000 10.266162 -0.273764
				CHANNELS 3 Xrotation Zrotation Yrotation 
				JOINT head
				{
					OFFSET 0.000000 3.148285 0.000000
					CHANNELS 3 Xrotation Zrotation Yrotation 
					End Site
					{
						OFFSET 0.000000 3.148289 0.000000
					}
				}
			}
			JOINT lCollar
			{
				OFFSET 3.422053 6.707223 -0.821293
				CHANNELS 3 Yrotation Zrotation Xrotation 
				JOINT lShldr
				{
					OFFSET 3.285171 0.000000 0.000000
					CHANNELS 3 Zrotation Yrotation Xrotation 
					JOINT lForeArm
					{
						OFFSET 10.129278 0.000000 0.000000
						CHANNELS 3 Yrotation Zrotation Xrotation 
						JOINT lHand
						{
							OFFSET 8.486692 0.000000 0.000000
							CHANNELS 3 Zrotation Yrotation Xrotation 
							End Site
							{
								OFFSET 4.106464 0.000000 0.000000
							}
						}
					}
				}
			}
			JOINT rCollar
			{
				OFFSET -3.558935 6.707223 -0.821293
				CHANNELS 3 Yrotation Zrotation Xrotation 
				JOINT rShldr
				{
					OFFSET -3.148289 0.000000 0.000000
					CHANNELS 3 Zrotation Yrotation Xrotation 
					JOINT rForeArm
					{
						OFFSET -10.266159 0.000000 0.000000
						CHANNELS 3 Yrotation Zrotation Xrotation 
						JOINT rHand
						{
							OFFSET -8.349810 0.000000 0.000000
							CHANNELS 3 Zrotation Yrotation Xrotation 
							End Site
							{
								OFFSET -4.106464 0.000000 0.000000
							}
						}
					}
				}
			}
		}
	}
	JOINT lThigh
	{
		OFFSET 5.338403 -1.642589 1.368821
		CHANNELS 3 Xrotation Zrotation Yrotation 
		JOINT lShin
		{
			OFFSET -2.053232 -20.121670 0.000000
			CHANNELS 3 Xrotation Zrotation Yrotation 
			JOINT lFoot
			{
				OFFSET 0.000000 -19.300380 -1.231939
				CHANNELS 3 Xrotation Yrotation Zrotation 
				End Site
				{
					OFFSET 0.000000 -2.463878 4.653993
				}
			}
		}
	}
	JOINT rThigh
	{
		OFFSET -5.338403 -1.642589 1.368821
		CHANNELS 3 Xrotation Zrotation Yrotation 
		JOINT rShin
		{
			OFFSET 2.053232 -20.121670 0.000000
			CHANNELS 3 Xrotation Zrotation Yrotation 
			JOINT rFoot
			{
				OFFSET 0.000000 -19.300380 -1.231939
				CHANNELS 3 Xrotation Yrotation Zrotation 
				End Site
				{
					OFFSET 0.000000 -2.463878 4.653993
				}
			}
		}
	}
}
MOTION
Frames: 11
Frame Time: 0.016633
-10.005451 13.998745 21.996380 0.000000 0.000000 -130.000488 23.514280 -0.029167 -2.151215 29.308704 -8.610806 -16.880989 0.000000 0.000000 0.000000 -22.333170 1.012582 -7.868102 -60.546486 -20.938725 -27.301027 -7.356896 -24.847324 -0.251986 -19.309200 9.213215 -1.810547 3.686816 -28.363085 -5.319500 40.578838 48.334465 -20.312302 29.032310 10.073959 16.855324 75.270218 -0.001767 4.999386 20.094137 -13.675274 -1.997894 -64.122421 11.762680 -15.074508 156.052750 2.084693 -19.495825 36.828609 48.545387 -23.507446 -139.496475 -57.307987 51.938011 118.858055 8.671795 13.284280 -6.420040 -34.018272 1.497440 
-10.005451 13.998745 21.996380 0.000000 0.000000 -130.000488 23.514280 -0.029167 -2.151215 29.308704 -8.610806 -16.880989 0.000000 0.000000 0.000000 -22.182999 1.016105 -7.814619 -60.546486 -20.938725 -27.301027 -7.356896 -24.847324 -0.251986 -19.859762 9.049332 -1.758726 3.686816 -28.363083 -5.319499 40.578835 48.334461 -20.312298 29.032570 10.060115 16.883005 74.911186 -0.001786 4.999370 20.100075 -13.717447 -1.997582 -64.122414 11.762681 -15.074506 156.052750 2.084693 -19.495825 36.828609 48.545387 -23.507446 -139.496460 -57.307980 51.938000 118.858055 8.671794 13.284280 -6.420040 -34.018269 1.497440 
-10.005451 13.998745 21.996380 0.000000 0.000000 -130.000488 23.514280 -0.029167 -2.151215 29.308704 -8.610806 -16.880989 0.000000 0.000000 0.000000 -22.032814 1.019488 -7.761122 -60.546486 -20.938725 -27.301027 -7.356896 -24.847324 -0.251986 -20.410227 8.884876 -1.708499 3.686816 -28.363083 -5.319499 40.578835 48.334461 -20.312298 29.032833 10.046273 16.910692 74.552094 -0.001805 4.999353 20.106010 -13.759616 -1.997273 -64.122414 11.762681 -15.074506 156.052750 2.084693 -19.495825 36.828609 48.545387 -23.507446 -139.496460 -57.307980 51.938000 118.858055 8.671794 13.284280 -6.420040 -34.018269 1.497440 
-10.005451 13.998745 21.996380 0.000000 0.000000 -130.000488 23.514280 -0.029167 -2.151215 29.308704 -8.610806 -16.880989 0.000000 0.000000 0.000000 -21.882608 1.022731 -7.707611 -60.546486 -20.938725 -27.301027 -7.356896 -24.847324 -0.251986 -20.960569 8.719870 -1.659870 3.686816 -28.363083 -5.319499 40.578835 48.334461 -20.312298 29.033092 10.032432 16.938379 74.192947 -0.001824 4.999338 20.111950 -13.801788 -1.996970 -64.122414 11.762681 -15.074506 156.052750 2.084693 -19.495825 36.828609 48.545387 -23.507446 -139.496460 -57.307980 51.938000 118.858055 8.671794 13.284280 -6.420040 -34.018269 1.497440 
-10.005451 13.998745 21.996380 0.000000 0.000000 -130.000488 23.514280 -0.029167 -2.151215 29.308704 -8.610806 -16.880989 0.000000 0.000000 0.000000 -21.732382 1.025834 -7.654086 -60.546486 -20.938725 -27.301027 -7.356896 -24.847324 -0.251986 -21.510778 8.554336 -1.612848 3.686816 -28.363083 -5.319499 40.578835 48.334461 -20.312298 29.033339 10.018588 16.966064 73.833717 -0.001844 4.999320 20.117889 -13.843961 -1.996671 -64.122414 11.762681 -15.074506 156.052750 2.084693 -19.495825 36.828609 48.545387 -23.507446 -139.496460 -57.307980 51.938000 118.858055 8.671794 13.284280 -6.420040 -34.018269 1.497440 
-10.005451 13.998745 21.996380 0.000000 0.000000 -130.000488 23.514280 -0.029167 -2.151215 29.308704 -8.610806 -16.880989 0.000000 0.000000 0.000000 -21.582146 1.028798 -7.600548 -60.546486 -20.938725 -27.301027 -7.356896 -24.847324 -0.251986 -22.060827 8.388294 -1.567437 3.686816 -28.363083 -5.319499 40.578831 48.334461 -20.312296 29.033585 10.004747 16.993746 73.474464 -0.001862 4.999302 20.123831 -13.886138 -1.996376 -64.122414 11.762681 -15.074506 156.052750 2.084693 -19.495825 36.828609 48.545387 -23.507446 -139.496460 -57.307980 51.938000 118.858055 8.671794 13.284280 -6.420040 -34.018269 1.497440 
-10.005451 13.998745 21.996380 0.000000 0.000000 -130.000488 23.514280 -0.029167 -2.151215 29.308704 -8.610806 -16.880989 0.000000 0.000000 0.000000 -21.431894 1.031621 -7.547001 -60.546486 -20.938725 -27.301027 -7.356896 -24.847324 -0.251986 -22.610703 8.221777 -1.523643 3.686816 -28.363083 -5.319499 40.578835 48.334461 -20.312298 29.033823 9.990907 17.021431 73.115173 -0.001881 4.999286 20.129770 -13.928308 -1.996086 -64.122414 11.762681 -15.074506 156.052750 2.084693 -19.495825 36.828609 48.545387 -23.507446 -139.496460 -57.307980 51.938000 118.858055 8.671794 13.284280 -6.420040 -34.018269 1.497440 
-10.005451 13.998745 21.996380 0.000000 0.000000 -130.000488 23.514280 -0.029167 -2.151215 29.308704 -8.610806 -16.880989 0.000000 0.000000 0.000000 -21.281630 1.034304 -7.493442 -60.546486 -20.938725 -27.301027 -7.356896 -24.847324 -0.251986 -23.160383 8.054798 -1.481470 3.686816 -28.363083 -5.319499 40.578835 48.334461 -20.312298 29.034052 9.977062 17.049110 72.755836 -0.001900 4.999268 20.135710 -13.970483 -1.995800 -64.122414 11.762681 -15.074506 156.052750 2.084693 -19.495825 36.828609 48.545387 -23.507446 -139.496460 -57.307980 51.938000 118.858055 8.671794 13.284280 -6.420040 -34.018269 1.497440 
-10.005451 13.998745 21.996380 0.000000 0.000000 -130.000488 23.514278 -0.029167 -2.151215 29.308704 -8.610806 -16.880989 0.000000 0.000000 0.000000 -21.131348 1.036846 -7.439870 -60.546486 -20.938725 -27.301027 -7.356896 -24.847324 -0.251986 -23.709850 7.887386 -1.440925 3.686816 -28.363083 -5.319499 40.578838 48.334461 -20.312298 29.034277 9.963220 17.076792 72.396492 -0.001918 4.999251 20.141657 -14.012660 -1.995519 -64.122414 11.762681 -15.074506 156.052750 2.084693 -19.495825 36.828609 48.545387 -23.507446 -139.496460 -57.307980 51.938000 118.858055 8.671794 13.284280 -6.420040 -34.018272 1.497440 
-10.005451 13.998745 21.996380 0.000000 0.000000 -130.000488 23.514278 -0.029167 -2.151215 29.308704 -8.610806 -16.880989 0.000000 0.000000 0.000000 -20.981054 1.039248 -7.386290 -60.546486 -20.938725 -27.301027 -7.356896 -24.847324 -0.251986 -24.259089 7.719562 -1.402010 3.686816 -28.363085 -5.319500 40.578835 48.334461 -20.312298 29.034485 9.949375 17.104469 72.037117 -0.001937 4.999233 20.147598 -14.054837 -1.995242 -64.122414 11.762681 -15.074506 156.052750 2.084693 -19.495825 36.828609 48.545387 -23.507446 -139.496460 -57.307980 51.938000 118.858055 8.671794 13.284280 -6.420040 -34.018272 1.497440 
-10.005451 13.998745 21.996380 0.000000 0.000000 -130.000488 23.514280 -0.029167 -2.151215 29.308704 -8.610806 -16.880989 0.000000 0.000000 0.000000 -20.830757 1.041510 -7.332702 -60.546486 -20.938725 -27.301027 -7.356896 -24.847324 -0.251986 -24.808073 7.551352 -1.364729 3.686816 -28.363081 -5.319499 40.578831 48.334461 -20.312296 29.034697 9.935533 17.132147 71.677742 -0.001955 4.999215 20.153549 -14.097017 -1.994970 -64.122414 11.762681 -15.074506 156.052750 2.084693 -19.495825 36.828609 48.545387 -23.507446 -139.496460 -57.307980 51.938000 118.858055 8.671794 13.284280 -6.420039 -34.018265 1.497440 
